<!-- <svg xmlns="http://www.w3.org/2000/svg" viewBox="0 0 1440 320"><path fill="#84b6f4" fill-opacity="1" d="M0,32L48,42.7C96,53,192,75,288,90.7C384,107,480,117,576,133.3C672,149,768,171,864,154.7C960,139,1056,85,1152,90.7C1248,96,1344,160,1392,192L1440,224L1440,0L1392,0C1344,0,1248,0,1152,0C1056,0,960,0,864,0C768,0,672,0,576,0C480,0,384,0,288,0C192,0,96,0,48,0L0,0Z"></path></svg> -->

<!-- <svg xmlns="http://www.w3.org/2000/svg" viewBox="0 0 1440 320"><path fill="#84b6f4" fill-opacity="1" d="M0,32L60,64C120,96,240,160,360,160C480,160,600,96,720,74.7C840,53,960,75,1080,96C1200,117,1320,139,1380,149.3L1440,160L1440,0L1380,0C1320,0,1200,0,1080,0C960,0,840,0,720,0C600,0,480,0,360,0C240,0,120,0,60,0L0,0Z"></path></svg> -->

<svg xmlns="http://www.w3.org/2000/svg" viewBox="0 0 1440 320"><path fill="#84b6f4" fill-opacity="1" d="M0,32L120,42.7C240,53,480,75,720,85.3C960,96,1200,96,1320,96L1440,96L1440,0L1320,0C1200,0,960,0,720,0C480,0,240,0,120,0L0,0Z"></path></svg>
