<!-- <svg xmlns="http://www.w3.org/2000/svg" viewBox="0 0 1440 320"><path fill="#85f5ac" fill-opacity="1" d="M0,32L60,69.3C120,107,240,181,360,197.3C480,213,600,171,720,144C840,117,960,107,1080,96C1200,85,1320,75,1380,69.3L1440,64L1440,0L1380,0C1320,0,1200,0,1080,0C960,0,840,0,720,0C600,0,480,0,360,0C240,0,120,0,60,0L0,0Z"></path></svg> -->


<!-- <svg xmlns="http://www.w3.org/2000/svg" viewBox="0 0 1440 320"><path fill="#85f5ac" fill-opacity="1" d="M0,288L0,160L1440,160L1440,0L0,0L0,0Z"></path></svg> -->

<svg xmlns="http://www.w3.org/2000/svg" viewBox="0 0 1440 320"><path fill="#85f5ac" fill-opacity="1" d="M0,160L60,138.7C120,117,240,75,360,90.7C480,107,600,181,720,202.7C840,224,960,192,1080,160C1200,128,1320,96,1380,80L1440,64L1440,0L1380,0C1320,0,1200,0,1080,0C960,0,840,0,720,0C600,0,480,0,360,0C240,0,120,0,60,0L0,0Z"></path></svg>